<svg  viewBox="0 0 20 21" fill="none" xmlns="http://www.w3.org/2000/svg">
<path d="M8.3283 0.761719C3.73857 0.761719 0 4.50029 0 9.09002C0 13.6798 3.73857 17.4183 8.3283 17.4183C10.3242 17.4183 12.1571 16.7096 13.5937 15.5331L18.5663 20.5057C18.643 20.5856 18.7349 20.6494 18.8366 20.6934C18.9383 20.7373 19.0478 20.7605 19.1586 20.7617C19.2694 20.7628 19.3793 20.7418 19.4819 20.6999C19.5845 20.658 19.6777 20.5961 19.756 20.5178C19.8344 20.4394 19.8963 20.3462 19.9382 20.2436C19.9801 20.141 20.0011 20.0311 20 19.9203C19.9988 19.8095 19.9756 19.7001 19.9316 19.5984C19.8877 19.4966 19.8239 19.4047 19.7439 19.328L14.7714 14.3554C15.9479 12.9189 16.6566 11.0859 16.6566 9.09002C16.6566 4.50029 12.918 0.761719 8.3283 0.761719ZM8.3283 2.42738C12.0178 2.42738 14.9909 5.40048 14.9909 9.09002C14.9909 12.7796 12.0178 15.7527 8.3283 15.7527C4.63876 15.7527 1.66566 12.7796 1.66566 9.09002C1.66566 5.40048 4.63876 2.42738 8.3283 2.42738Z" fill="#999999"/>
</svg>
