<svg  viewBox="0 0 14 13" fill="none" xmlns="http://www.w3.org/2000/svg">
<path d="M6.99312 12.9736C6.83792 12.9736 6.68206 12.9458 6.52553 12.8901C6.369 12.8343 6.23126 12.747 6.11229 12.6282L5.07132 11.6819C3.7865 10.5104 2.63936 9.35951 1.62991 8.22929C0.620459 7.09906 0.115734 5.88827 0.115734 4.59693C0.115734 3.56852 0.462484 2.7075 1.15598 2.01388C1.8496 1.32038 2.71062 0.973633 3.73903 0.973633C4.32335 0.973633 4.90054 1.10836 5.47061 1.37781C6.04055 1.64726 6.55035 2.08484 7 2.69053C7.44965 2.08484 7.95945 1.64726 8.52939 1.37781C9.09946 1.10836 9.67665 0.973633 10.261 0.973633C11.2894 0.973633 12.1504 1.32038 12.844 2.01388C13.5375 2.7075 13.8843 3.56852 13.8843 4.59693C13.8843 5.90228 13.371 7.12654 12.3444 8.26969C11.3178 9.41284 10.1732 10.5539 8.91057 11.693L7.88064 12.6282C7.7618 12.747 7.62297 12.8343 7.46414 12.8901C7.3052 12.9458 7.14819 12.9736 6.99312 12.9736ZM6.47879 3.79147C6.08675 3.19411 5.67399 2.75629 5.24053 2.47803C4.80718 2.19976 4.30668 2.06062 3.73903 2.06062C3.01437 2.06062 2.41049 2.30218 1.92738 2.78528C1.44428 3.26839 1.20272 3.87227 1.20272 4.59693C1.20272 5.17847 1.39017 5.78652 1.76506 6.42108C2.13995 7.05564 2.6105 7.68646 3.1767 8.31353C3.7429 8.94072 4.35632 9.55342 5.01697 10.1516C5.6775 10.75 6.28971 11.306 6.85362 11.8198C6.89541 11.857 6.9442 11.8756 7 11.8756C7.0558 11.8756 7.10459 11.857 7.14638 11.8198C7.71029 11.306 8.3225 10.75 8.98303 10.1516C9.64368 9.55342 10.2571 8.94072 10.8233 8.31353C11.3895 7.68646 11.8601 7.05564 12.2349 6.42108C12.6098 5.78652 12.7973 5.17847 12.7973 4.59693C12.7973 3.87227 12.5557 3.26839 12.0726 2.78528C11.5895 2.30218 10.9856 2.06062 10.261 2.06062C9.69332 2.06062 9.19282 2.19976 8.75947 2.47803C8.32601 2.75629 7.91325 3.19411 7.52121 3.79147C7.45986 3.88435 7.38274 3.95404 7.28986 4.00054C7.19699 4.04691 7.10037 4.0701 7 4.0701C6.89963 4.0701 6.80301 4.04691 6.71014 4.00054C6.61726 3.95404 6.54014 3.88435 6.47879 3.79147Z" fill="white"/>
</svg>
